<svg width="15" height="15" viewBox="0 0 15 15" fill="none" xmlns="http://www.w3.org/2000/svg">
<path d="M9.09263 8.87059C9.82924 8.13398 10.1975 7.24949 10.1975 6.21713C10.1975 5.18476 9.82924 4.30307 9.09263 3.57204C8.36161 2.83543 7.47991 2.46713 6.44754 2.46713C5.41518 2.46713 4.53069 2.83543 3.79408 3.57204C3.06306 4.30307 2.69754 5.18476 2.69754 6.21713C2.69754 7.24949 3.06306 8.13398 3.79408 8.87059C4.53069 9.60161 5.41518 9.96713 6.44754 9.96713C7.47991 9.96713 8.36161 9.60161 9.09263 8.87059ZM14.4833 13.1814C14.4833 13.4716 14.3772 13.7227 14.1652 13.9348C13.9531 14.1468 13.702 14.2528 13.4118 14.2528C13.1105 14.2528 12.8594 14.1468 12.6585 13.9348L9.78739 11.072C8.7885 11.764 7.67522 12.11 6.44754 12.11C5.64955 12.11 4.88504 11.9565 4.15402 11.6496C3.42857 11.3371 2.80078 10.9186 2.27065 10.394C1.74609 9.86389 1.32757 9.2361 1.01507 8.51065C0.708147 7.77963 0.554688 7.01512 0.554688 6.21713C0.554688 5.41914 0.708147 4.65742 1.01507 3.93197C1.32757 3.20094 1.74609 2.57315 2.27065 2.0486C2.80078 1.51847 3.42857 1.09994 4.15402 0.79302C4.88504 0.48052 5.64955 0.32427 6.44754 0.32427C7.24554 0.32427 8.00726 0.48052 8.7327 0.79302C9.46373 1.09994 10.0915 1.51847 10.6161 2.0486C11.1462 2.57315 11.5647 3.20094 11.8717 3.93197C12.1842 4.65742 12.3404 5.41914 12.3404 6.21713C12.3404 7.44481 11.9944 8.55809 11.3025 9.55697L14.1736 12.4281C14.38 12.6345 14.4833 12.8857 14.4833 13.1814Z" fill="#1E1F20"/>
</svg>
